<?xml version="1.0" encoding="UTF-8"?>
<svg xmlns="http://www.w3.org/2000/svg" xmlns:xlink="http://www.w3.org/1999/xlink" width="31px" height="32px" viewBox="0 0 31 32" version="1.1">
<g id="surface1">
<path style=" stroke:none;fill-rule:evenodd;fill:rgb(0%,0%,0%);fill-opacity:1;" d="M 15.5 0 C 24.039062 0 31 7.1875 31 16 C 31 24.8125 24.039062 32 15.5 32 C 6.964844 32 0 24.8125 0 16 C 0 7.1875 6.964844 0 15.5 0 Z M 15.5 0 "/>
<path style=" stroke:none;fill-rule:nonzero;fill:rgb(100%,100%,100%);fill-opacity:1;" d="M 6.496094 11.203125 L 2.835938 7.953125 L 4.207031 6.308594 C 4.484375 5.976562 4.746094 5.742188 4.988281 5.605469 C 5.230469 5.46875 5.476562 5.410156 5.726562 5.433594 C 5.972656 5.453125 6.183594 5.539062 6.351562 5.6875 C 6.507812 5.828125 6.613281 6.007812 6.667969 6.234375 C 6.71875 6.457031 6.703125 6.710938 6.617188 6.992188 C 6.902344 6.78125 7.183594 6.679688 7.457031 6.675781 C 7.734375 6.671875 7.976562 6.761719 8.191406 6.953125 C 8.359375 7.101562 8.484375 7.292969 8.558594 7.507812 C 8.632812 7.722656 8.660156 7.933594 8.632812 8.128906 C 8.605469 8.328125 8.53125 8.542969 8.414062 8.769531 C 8.292969 8.996094 8.117188 9.25 7.886719 9.53125 Z M 4.859375 8.738281 L 5.648438 7.792969 C 5.859375 7.535156 6 7.339844 6.066406 7.199219 C 6.152344 7.023438 6.183594 6.855469 6.160156 6.707031 C 6.136719 6.558594 6.0625 6.425781 5.933594 6.3125 C 5.8125 6.203125 5.675781 6.144531 5.527344 6.128906 C 5.375 6.117188 5.230469 6.164062 5.089844 6.261719 C 4.945312 6.359375 4.742188 6.566406 4.480469 6.882812 L 3.753906 7.757812 Z M 6.546875 10.238281 L 7.453125 9.148438 C 7.609375 8.960938 7.714844 8.824219 7.765625 8.738281 C 7.855469 8.585938 7.917969 8.445312 7.945312 8.316406 C 7.972656 8.183594 7.964844 8.050781 7.925781 7.914062 C 7.882812 7.777344 7.808594 7.65625 7.691406 7.554688 C 7.554688 7.433594 7.402344 7.367188 7.230469 7.363281 C 7.058594 7.355469 6.890625 7.410156 6.726562 7.523438 C 6.5625 7.636719 6.363281 7.832031 6.132812 8.109375 L 5.289062 9.121094 Z M 12.574219 5.625 L 12.574219 1.351562 L 13.667969 1.351562 L 14.960938 4.375 C 15.082031 4.65625 15.167969 4.867188 15.222656 5.007812 C 15.285156 4.851562 15.382812 4.625 15.515625 4.324219 L 16.824219 1.351562 L 17.800781 1.351562 L 17.800781 5.625 L 17.101562 5.625 L 17.101562 2.046875 L 15.511719 5.625 L 14.855469 5.625 L 13.273438 1.988281 L 13.273438 5.625 Z M 22.46875 8.117188 L 25 4.574219 L 25.347656 5.015625 L 23.632812 7.265625 C 23.457031 7.5 23.273438 7.726562 23.082031 7.953125 C 23.492188 7.746094 23.726562 7.632812 23.792969 7.601562 L 26.441406 6.40625 L 26.847656 6.925781 L 25.589844 8.746094 C 25.277344 9.199219 24.964844 9.601562 24.652344 9.949219 C 24.886719 9.820312 25.160156 9.679688 25.476562 9.527344 L 27.933594 8.3125 L 28.273438 8.742188 L 24.367188 10.535156 L 24.042969 10.121094 L 25.953125 7.394531 C 26.109375 7.167969 26.210938 7.027344 26.246094 6.980469 C 26.074219 7.066406 25.921875 7.140625 25.796875 7.199219 L 22.8125 8.554688 Z M 22.46875 8.117188 "/>
<path style=" stroke:none;fill-rule:evenodd;fill:rgb(0%,67.450982%,92.54902%);fill-opacity:1;" d="M 24.65625 16.160156 C 24.65625 21.277344 20.613281 25.453125 15.652344 25.453125 L 15.652344 16.160156 Z M 24.65625 16.160156 "/>
<path style=" stroke:none;fill-rule:evenodd;fill:rgb(100%,100%,100%);fill-opacity:1;" d="M 24.65625 15.839844 C 24.65625 10.722656 20.613281 6.546875 15.652344 6.546875 L 15.652344 15.839844 Z M 24.65625 15.839844 "/>
<path style=" stroke:none;fill-rule:evenodd;fill:rgb(0%,67.450982%,92.54902%);fill-opacity:1;" d="M 6.34375 15.839844 C 6.34375 10.722656 10.386719 6.546875 15.347656 6.546875 L 15.347656 15.839844 Z M 6.34375 15.839844 "/>
<path style=" stroke:none;fill-rule:evenodd;fill:rgb(100%,100%,100%);fill-opacity:1;" d="M 6.34375 16.160156 C 6.34375 21.277344 10.386719 25.453125 15.347656 25.453125 L 15.347656 16.160156 Z M 6.34375 16.160156 "/>
</g>
</svg>
